<svg width="86" height="32" viewBox="0 0 86 32" fill="none" xmlns="http://www.w3.org/2000/svg">
<g filter="url(#filter0_d_805_4310)">
<rect x="4" y="3" width="78" height="24" rx="8" fill="white"/>
<circle cx="18" cy="15" r="6" fill="#CC0001"/>
<path d="M29.125 20V11.4336H30.5312V20H29.125ZM36.0332 13.3906C36.7637 13.3906 37.332 13.5801 37.7383 13.959C38.1484 14.334 38.3535 14.9375 38.3535 15.7695V20H36.9766V16.0273C36.9766 15.5234 36.873 15.1465 36.666 14.8965C36.459 14.6426 36.1387 14.5156 35.7051 14.5156C35.0762 14.5156 34.6387 14.709 34.3926 15.0957C34.1504 15.4824 34.0293 16.043 34.0293 16.7773V20H32.6523V13.5137H33.7246L33.918 14.3926H33.9941C34.1348 14.166 34.3086 13.9805 34.5156 13.8359C34.7266 13.6875 34.9609 13.5762 35.2188 13.502C35.4805 13.4277 35.752 13.3906 36.0332 13.3906ZM42.8242 13.3906C43.6445 13.3906 44.2637 13.5723 44.6816 13.9355C45.1035 14.2988 45.3145 14.8652 45.3145 15.6348V20H44.3359L44.0723 19.0801H44.0254C43.8418 19.3145 43.6523 19.5078 43.457 19.6602C43.2617 19.8125 43.0352 19.9258 42.7773 20C42.5234 20.0781 42.2129 20.1172 41.8457 20.1172C41.459 20.1172 41.1133 20.0469 40.8086 19.9062C40.5039 19.7617 40.2637 19.543 40.0879 19.25C39.9121 18.957 39.8242 18.5859 39.8242 18.1367C39.8242 17.4688 40.0723 16.9668 40.5684 16.6309C41.0684 16.2949 41.8223 16.1094 42.8301 16.0742L43.9551 16.0332V15.6934C43.9551 15.2441 43.8496 14.9238 43.6387 14.7324C43.4316 14.541 43.1387 14.4453 42.7598 14.4453C42.4355 14.4453 42.1211 14.4922 41.8164 14.5859C41.5117 14.6797 41.2148 14.7949 40.9258 14.9316L40.4805 13.959C40.7969 13.791 41.1562 13.6543 41.5586 13.5488C41.9648 13.4434 42.3867 13.3906 42.8242 13.3906ZM43.9492 16.9004L43.1113 16.9297C42.4238 16.9531 41.9414 17.0703 41.6641 17.2812C41.3867 17.4922 41.248 17.7812 41.248 18.1484C41.248 18.4688 41.3438 18.7031 41.5352 18.8516C41.7266 18.9961 41.9785 19.0684 42.291 19.0684C42.7676 19.0684 43.1621 18.9336 43.4746 18.6641C43.791 18.3906 43.9492 17.9902 43.9492 17.4629V16.9004ZM49.8555 20.1172C49.2422 20.1172 48.7109 19.998 48.2617 19.7598C47.8125 19.5215 47.4668 19.1562 47.2246 18.6641C46.9824 18.1719 46.8613 17.5469 46.8613 16.7891C46.8613 16 46.9941 15.3555 47.2598 14.8555C47.5254 14.3555 47.8926 13.9863 48.3613 13.748C48.834 13.5098 49.375 13.3906 49.9844 13.3906C50.3711 13.3906 50.7207 13.4297 51.0332 13.5078C51.3496 13.582 51.6172 13.6738 51.8359 13.7832L51.4258 14.8848C51.1875 14.7871 50.9434 14.7051 50.6934 14.6387C50.4434 14.5723 50.2031 14.5391 49.9727 14.5391C49.5938 14.5391 49.2773 14.623 49.0234 14.791C48.7734 14.959 48.5859 15.209 48.4609 15.541C48.3398 15.873 48.2793 16.2852 48.2793 16.7773C48.2793 17.2539 48.3418 17.6562 48.4668 17.9844C48.5918 18.3086 48.7773 18.5547 49.0234 18.7227C49.2695 18.8867 49.5723 18.9688 49.9316 18.9688C50.2871 18.9688 50.6055 18.9258 50.8867 18.8398C51.168 18.7539 51.4336 18.6426 51.6836 18.5059V19.7012C51.4375 19.8418 51.1738 19.9453 50.8926 20.0117C50.6113 20.082 50.2656 20.1172 49.8555 20.1172ZM55.6211 19.0039C55.8008 19.0039 55.9785 18.9883 56.1543 18.957C56.3301 18.9219 56.4902 18.8809 56.6348 18.834V19.877C56.4824 19.9434 56.2852 20 56.043 20.0469C55.8008 20.0938 55.5488 20.1172 55.2871 20.1172C54.9199 20.1172 54.5898 20.0566 54.2969 19.9355C54.0039 19.8105 53.7715 19.5977 53.5996 19.2969C53.4277 18.9961 53.3418 18.5801 53.3418 18.0488V14.5625H52.457V13.9473L53.4062 13.4609L53.8574 12.0723H54.7246V13.5137H56.582V14.5625H54.7246V18.0312C54.7246 18.3594 54.8066 18.6035 54.9707 18.7637C55.1348 18.9238 55.3516 19.0039 55.6211 19.0039ZM59.3301 13.5137V20H57.9531V13.5137H59.3301ZM58.6504 11.0293C58.8613 11.0293 59.043 11.0859 59.1953 11.1992C59.3516 11.3125 59.4297 11.5078 59.4297 11.7852C59.4297 12.0586 59.3516 12.2539 59.1953 12.3711C59.043 12.4844 58.8613 12.541 58.6504 12.541C58.4316 12.541 58.2461 12.4844 58.0938 12.3711C57.9453 12.2539 57.8711 12.0586 57.8711 11.7852C57.8711 11.5078 57.9453 11.3125 58.0938 11.1992C58.2461 11.0859 58.4316 11.0293 58.6504 11.0293ZM62.7871 20L60.3203 13.5137H61.7793L63.1152 17.3223C63.2012 17.5645 63.2793 17.8262 63.3496 18.1074C63.4199 18.3887 63.4688 18.625 63.4961 18.8164H63.543C63.5703 18.6172 63.623 18.3789 63.7012 18.1016C63.7793 17.8203 63.8594 17.5605 63.9414 17.3223L65.2773 13.5137H66.7305L64.2637 20H62.7871ZM70.2988 13.3906C70.877 13.3906 71.373 13.5098 71.7871 13.748C72.2012 13.9863 72.5195 14.3242 72.7422 14.7617C72.9648 15.1992 73.0762 15.7227 73.0762 16.332V17.0703H68.7461C68.7617 17.6992 68.9297 18.1836 69.25 18.5234C69.5742 18.8633 70.0273 19.0332 70.6094 19.0332C71.0234 19.0332 71.3945 18.9941 71.7227 18.916C72.0547 18.834 72.3965 18.7148 72.748 18.5586V19.6777C72.4238 19.8301 72.0938 19.9414 71.7578 20.0117C71.4219 20.082 71.0195 20.1172 70.5508 20.1172C69.9141 20.1172 69.3535 19.9941 68.8691 19.748C68.3887 19.498 68.0117 19.127 67.7383 18.6348C67.4688 18.1426 67.334 17.5312 67.334 16.8008C67.334 16.0742 67.457 15.457 67.7031 14.9492C67.9492 14.4414 68.2949 14.0547 68.7402 13.7891C69.1855 13.5234 69.7051 13.3906 70.2988 13.3906ZM70.2988 14.4277C69.8652 14.4277 69.5137 14.5684 69.2441 14.8496C68.9785 15.1309 68.8223 15.543 68.7754 16.0859H71.7285C71.7246 15.7617 71.6699 15.4746 71.5645 15.2246C71.4629 14.9746 71.3066 14.7793 71.0957 14.6387C70.8887 14.498 70.623 14.4277 70.2988 14.4277Z" fill="black"/>
</g>
<defs>
<filter id="filter0_d_805_4310" x="0" y="0" width="86" height="32" filterUnits="userSpaceOnUse" color-interpolation-filters="sRGB">
<feFlood flood-opacity="0" result="BackgroundImageFix"/>
<feColorMatrix in="SourceAlpha" type="matrix" values="0 0 0 0 0 0 0 0 0 0 0 0 0 0 0 0 0 0 127 0" result="hardAlpha"/>
<feOffset dy="1"/>
<feGaussianBlur stdDeviation="2"/>
<feComposite in2="hardAlpha" operator="out"/>
<feColorMatrix type="matrix" values="0 0 0 0 0 0 0 0 0 0 0 0 0 0 0 0 0 0 0.25 0"/>
<feBlend mode="normal" in2="BackgroundImageFix" result="effect1_dropShadow_805_4310"/>
<feBlend mode="normal" in="SourceGraphic" in2="effect1_dropShadow_805_4310" result="shape"/>
</filter>
</defs>
</svg>
