<svg width="76" height="32" viewBox="0 0 76 32" fill="none" xmlns="http://www.w3.org/2000/svg">
<g filter="url(#filter0_d_805_4993)">
<rect x="4" y="3" width="68" height="24" rx="8" fill="white"/>
<circle cx="18" cy="15" r="6" fill="#009A00"/>
<path d="M34.4336 20L33.5957 17.6211H30.3203L29.4824 20H28L31.1875 11.3984H32.7461L35.9277 20H34.4336ZM33.2324 16.4141L32.418 14.0703C32.3867 13.9688 32.3418 13.8262 32.2832 13.6426C32.2246 13.4551 32.166 13.2656 32.1074 13.0742C32.0488 12.8789 32 12.7148 31.9609 12.582C31.9219 12.7422 31.873 12.9219 31.8145 13.1211C31.7598 13.3164 31.7051 13.5 31.6504 13.6719C31.5996 13.8438 31.5605 13.9766 31.5332 14.0703L30.7129 16.4141H33.2324ZM39.5312 20.1172C38.918 20.1172 38.3867 19.998 37.9375 19.7598C37.4883 19.5215 37.1426 19.1562 36.9004 18.6641C36.6582 18.1719 36.5371 17.5469 36.5371 16.7891C36.5371 16 36.6699 15.3555 36.9355 14.8555C37.2012 14.3555 37.5684 13.9863 38.0371 13.748C38.5098 13.5098 39.0508 13.3906 39.6602 13.3906C40.0469 13.3906 40.3965 13.4297 40.709 13.5078C41.0254 13.582 41.293 13.6738 41.5117 13.7832L41.1016 14.8848C40.8633 14.7871 40.6191 14.7051 40.3691 14.6387C40.1191 14.5723 39.8789 14.5391 39.6484 14.5391C39.2695 14.5391 38.9531 14.623 38.6992 14.791C38.4492 14.959 38.2617 15.209 38.1367 15.541C38.0156 15.873 37.9551 16.2852 37.9551 16.7773C37.9551 17.2539 38.0176 17.6562 38.1426 17.9844C38.2676 18.3086 38.4531 18.5547 38.6992 18.7227C38.9453 18.8867 39.248 18.9688 39.6074 18.9688C39.9629 18.9688 40.2812 18.9258 40.5625 18.8398C40.8438 18.7539 41.1094 18.6426 41.3594 18.5059V19.7012C41.1133 19.8418 40.8496 19.9453 40.5684 20.0117C40.2871 20.082 39.9414 20.1172 39.5312 20.1172ZM45.2969 19.0039C45.4766 19.0039 45.6543 18.9883 45.8301 18.957C46.0059 18.9219 46.166 18.8809 46.3105 18.834V19.877C46.1582 19.9434 45.9609 20 45.7188 20.0469C45.4766 20.0938 45.2246 20.1172 44.9629 20.1172C44.5957 20.1172 44.2656 20.0566 43.9727 19.9355C43.6797 19.8105 43.4473 19.5977 43.2754 19.2969C43.1035 18.9961 43.0176 18.5801 43.0176 18.0488V14.5625H42.1328V13.9473L43.082 13.4609L43.5332 12.0723H44.4004V13.5137H46.2578V14.5625H44.4004V18.0312C44.4004 18.3594 44.4824 18.6035 44.6465 18.7637C44.8105 18.9238 45.0273 19.0039 45.2969 19.0039ZM49.0059 13.5137V20H47.6289V13.5137H49.0059ZM48.3262 11.0293C48.5371 11.0293 48.7188 11.0859 48.8711 11.1992C49.0273 11.3125 49.1055 11.5078 49.1055 11.7852C49.1055 12.0586 49.0273 12.2539 48.8711 12.3711C48.7188 12.4844 48.5371 12.541 48.3262 12.541C48.1074 12.541 47.9219 12.4844 47.7695 12.3711C47.6211 12.2539 47.5469 12.0586 47.5469 11.7852C47.5469 11.5078 47.6211 11.3125 47.7695 11.1992C47.9219 11.0859 48.1074 11.0293 48.3262 11.0293ZM52.4629 20L49.9961 13.5137H51.4551L52.791 17.3223C52.877 17.5645 52.9551 17.8262 53.0254 18.1074C53.0957 18.3887 53.1445 18.625 53.1719 18.8164H53.2188C53.2461 18.6172 53.2988 18.3789 53.377 18.1016C53.4551 17.8203 53.5352 17.5605 53.6172 17.3223L54.9531 13.5137H56.4062L53.9395 20H52.4629ZM59.9746 13.3906C60.5527 13.3906 61.0488 13.5098 61.4629 13.748C61.877 13.9863 62.1953 14.3242 62.418 14.7617C62.6406 15.1992 62.752 15.7227 62.752 16.332V17.0703H58.4219C58.4375 17.6992 58.6055 18.1836 58.9258 18.5234C59.25 18.8633 59.7031 19.0332 60.2852 19.0332C60.6992 19.0332 61.0703 18.9941 61.3984 18.916C61.7305 18.834 62.0723 18.7148 62.4238 18.5586V19.6777C62.0996 19.8301 61.7695 19.9414 61.4336 20.0117C61.0977 20.082 60.6953 20.1172 60.2266 20.1172C59.5898 20.1172 59.0293 19.9941 58.5449 19.748C58.0645 19.498 57.6875 19.127 57.4141 18.6348C57.1445 18.1426 57.0098 17.5312 57.0098 16.8008C57.0098 16.0742 57.1328 15.457 57.3789 14.9492C57.625 14.4414 57.9707 14.0547 58.416 13.7891C58.8613 13.5234 59.3809 13.3906 59.9746 13.3906ZM59.9746 14.4277C59.541 14.4277 59.1895 14.5684 58.9199 14.8496C58.6543 15.1309 58.498 15.543 58.4512 16.0859H61.4043C61.4004 15.7617 61.3457 15.4746 61.2402 15.2246C61.1387 14.9746 60.9824 14.7793 60.7715 14.6387C60.5645 14.498 60.2988 14.4277 59.9746 14.4277Z" fill="black"/>
</g>
<defs>
<filter id="filter0_d_805_4993" x="0" y="0" width="76" height="32" filterUnits="userSpaceOnUse" color-interpolation-filters="sRGB">
<feFlood flood-opacity="0" result="BackgroundImageFix"/>
<feColorMatrix in="SourceAlpha" type="matrix" values="0 0 0 0 0 0 0 0 0 0 0 0 0 0 0 0 0 0 127 0" result="hardAlpha"/>
<feOffset dy="1"/>
<feGaussianBlur stdDeviation="2"/>
<feComposite in2="hardAlpha" operator="out"/>
<feColorMatrix type="matrix" values="0 0 0 0 0 0 0 0 0 0 0 0 0 0 0 0 0 0 0.25 0"/>
<feBlend mode="normal" in2="BackgroundImageFix" result="effect1_dropShadow_805_4993"/>
<feBlend mode="normal" in="SourceGraphic" in2="effect1_dropShadow_805_4993" result="shape"/>
</filter>
</defs>
</svg>
