<svg width="24" height="24" viewBox="0 0 24 24" fill="none" xmlns="http://www.w3.org/2000/svg">
<rect width="24" height="24" rx="12" fill="#28272C"/>
<path d="M9.33333 13.5C9.14444 13.5 8.98611 13.4361 8.85833 13.3083C8.73056 13.1806 8.66667 13.0222 8.66667 12.8333C8.66667 12.6444 8.73056 12.4861 8.85833 12.3583C8.98611 12.2306 9.14444 12.1667 9.33333 12.1667C9.52222 12.1667 9.68056 12.2306 9.80833 12.3583C9.93611 12.4861 10 12.6444 10 12.8333C10 13.0222 9.93611 13.1806 9.80833 13.3083C9.68056 13.4361 9.52222 13.5 9.33333 13.5ZM12 13.5C11.8111 13.5 11.6528 13.4361 11.525 13.3083C11.3972 13.1806 11.3333 13.0222 11.3333 12.8333C11.3333 12.6444 11.3972 12.4861 11.525 12.3583C11.6528 12.2306 11.8111 12.1667 12 12.1667C12.1889 12.1667 12.3472 12.2306 12.475 12.3583C12.6028 12.4861 12.6667 12.6444 12.6667 12.8333C12.6667 13.0222 12.6028 13.1806 12.475 13.3083C12.3472 13.4361 12.1889 13.5 12 13.5ZM14.6667 13.5C14.4778 13.5 14.3194 13.4361 14.1917 13.3083C14.0639 13.1806 14 13.0222 14 12.8333C14 12.6444 14.0639 12.4861 14.1917 12.3583C14.3194 12.2306 14.4778 12.1667 14.6667 12.1667C14.8556 12.1667 15.0139 12.2306 15.1417 12.3583C15.2694 12.4861 15.3333 12.6444 15.3333 12.8333C15.3333 13.0222 15.2694 13.1806 15.1417 13.3083C15.0139 13.4361 14.8556 13.5 14.6667 13.5ZM7.33333 18.8333C6.96667 18.8333 6.65278 18.7028 6.39167 18.4417C6.13056 18.1806 6 17.8667 6 17.5V8.16667C6 7.8 6.13056 7.48611 6.39167 7.225C6.65278 6.96389 6.96667 6.83333 7.33333 6.83333H8V5.5H9.33333V6.83333H14.6667V5.5H16V6.83333H16.6667C17.0333 6.83333 17.3472 6.96389 17.6083 7.225C17.8694 7.48611 18 7.8 18 8.16667V17.5C18 17.8667 17.8694 18.1806 17.6083 18.4417C17.3472 18.7028 17.0333 18.8333 16.6667 18.8333H7.33333ZM7.33333 17.5H16.6667V10.8333H7.33333V17.5ZM7.33333 9.5H16.6667V8.16667H7.33333V9.5Z" fill="#FFCE5D"/>
</svg>
