<svg width="18" height="18" viewBox="0 0 18 18" fill="none" xmlns="http://www.w3.org/2000/svg">
<path d="M2.25 15.25V4.75H5.25V1.75H12.75V7.75H15.75V15.25H9.75V12.25H8.25V15.25H2.25ZM3.75 13.75H5.25V12.25H3.75V13.75ZM3.75 10.75H5.25V9.25H3.75V10.75ZM3.75 7.75H5.25V6.25H3.75V7.75ZM6.75 10.75H8.25V9.25H6.75V10.75ZM6.75 7.75H8.25V6.25H6.75V7.75ZM6.75 4.75H8.25V3.25H6.75V4.75ZM9.75 10.75H11.25V9.25H9.75V10.75ZM9.75 7.75H11.25V6.25H9.75V7.75ZM9.75 4.75H11.25V3.25H9.75V4.75ZM12.75 13.75H14.25V12.25H12.75V13.75ZM12.75 10.75H14.25V9.25H12.75V10.75Z" fill="#28272C"/>
</svg>
