<svg width="18" height="19" viewBox="0 0 18 19" fill="none" xmlns="http://www.w3.org/2000/svg">
<path d="M3.5 17C3.0875 17 2.73438 16.8531 2.44063 16.5594C2.14687 16.2656 2 15.9125 2 15.5V7.25C2 6.8375 2.14687 6.48438 2.44063 6.19063C2.73438 5.89688 3.0875 5.75 3.5 5.75H7.25V3.5C7.25 3.0875 7.39688 2.73438 7.69063 2.44063C7.98438 2.14687 8.3375 2 8.75 2H10.25C10.6625 2 11.0156 2.14687 11.3094 2.44063C11.6031 2.73438 11.75 3.0875 11.75 3.5V5.75H15.5C15.9125 5.75 16.2656 5.89688 16.5594 6.19063C16.8531 6.48438 17 6.8375 17 7.25V15.5C17 15.9125 16.8531 16.2656 16.5594 16.5594C16.2656 16.8531 15.9125 17 15.5 17H3.5ZM3.5 15.5H15.5V7.25H11.75C11.75 7.6625 11.6031 8.01562 11.3094 8.30938C11.0156 8.60313 10.6625 8.75 10.25 8.75H8.75C8.3375 8.75 7.98438 8.60313 7.69063 8.30938C7.39688 8.01562 7.25 7.6625 7.25 7.25H3.5V15.5ZM5 14H9.5V13.6625C9.5 13.45 9.44063 13.2531 9.32188 13.0719C9.20313 12.8906 9.0375 12.75 8.825 12.65C8.575 12.5375 8.32188 12.4531 8.06563 12.3969C7.80938 12.3406 7.5375 12.3125 7.25 12.3125C6.9625 12.3125 6.69063 12.3406 6.43438 12.3969C6.17813 12.4531 5.925 12.5375 5.675 12.65C5.4625 12.75 5.29688 12.8906 5.17813 13.0719C5.05938 13.2531 5 13.45 5 13.6625V14ZM11 12.875H14V11.75H11V12.875ZM7.25 11.75C7.5625 11.75 7.82812 11.6406 8.04688 11.4219C8.26563 11.2031 8.375 10.9375 8.375 10.625C8.375 10.3125 8.26563 10.0469 8.04688 9.82813C7.82812 9.60938 7.5625 9.5 7.25 9.5C6.9375 9.5 6.67188 9.60938 6.45312 9.82813C6.23438 10.0469 6.125 10.3125 6.125 10.625C6.125 10.9375 6.23438 11.2031 6.45312 11.4219C6.67188 11.6406 6.9375 11.75 7.25 11.75ZM11 10.625H14V9.5H11V10.625ZM8.75 7.25H10.25V3.5H8.75V7.25Z" fill="#28272C"/>
</svg>
