<svg width="24" height="24" viewBox="0 0 24 24" fill="none" xmlns="http://www.w3.org/2000/svg">
<rect width="24" height="24" rx="12" fill="#28272C"/>
<path fill-rule="evenodd" clip-rule="evenodd" d="M17.2539 12.4117C17.2539 13.8647 16.7427 15.1054 15.7188 16.1293C14.6934 17.1546 13.4542 17.6673 12.0011 17.6673C10.5539 17.6673 9.31472 17.1561 8.2879 16.1293C7.26254 15.1054 6.74694 13.8647 6.74694 12.4117C6.74694 10.963 7.26108 9.72816 8.2879 8.69987C9.31765 7.67452 10.5554 7.15891 12.0011 7.15891C13.4542 7.15891 14.6934 7.67305 15.7188 8.69987C16.7412 9.72816 17.2539 10.963 17.2539 12.4117ZM5.39786 11.4434C5.85927 11.1285 6.09071 10.7169 6.05116 9.77503V7.35373C6.04677 7.01536 5.43302 6.97435 5.40226 7.35373L5.37882 9.31801C5.37736 9.68568 4.82513 9.6974 4.8266 9.31801L4.85003 7.28635C4.84271 6.92308 4.25679 6.88646 4.24947 7.28635C4.24947 7.85029 4.22603 8.75407 4.22603 9.31801C4.25533 9.67396 3.74265 9.72083 3.75583 9.31801L3.77927 7.29953C3.76609 7.02562 3.46434 6.92747 3.25927 7.05638C3.04101 7.19553 3.08496 7.47531 3.07617 7.71114L3 10.0284C3.01172 10.7022 3.18896 11.2501 3.71628 11.483C3.79685 11.5181 3.90817 11.546 4.03707 11.565L3.85544 17.2162C3.84518 17.5516 4.1191 17.8255 4.43989 17.8255H4.51313C4.87493 17.8255 5.18107 17.5165 5.17082 17.14L5.01116 11.5635C5.17961 11.5372 5.31877 11.4976 5.39786 11.4434ZM18.6352 17.0463L18.6264 11.9708C16.8467 10.9425 17.4136 6.98021 19.1947 7.00218C21.3597 7.02708 21.616 11.4669 19.7543 11.9546L19.892 17.0668C19.9183 18.0335 18.6367 18.1229 18.6352 17.0463ZM15.0596 12.4073C15.0596 13.2539 14.7623 13.9761 14.1632 14.5752C13.5655 15.1713 12.8434 15.4716 11.9968 15.4716C11.156 15.4716 10.4338 15.1713 9.83618 14.5752C9.23855 13.9761 8.93973 13.2539 8.93973 12.4073C8.93973 11.5665 9.23855 10.8443 9.83618 10.2482C10.4353 9.65199 11.156 9.3517 11.9968 9.3517C13.6974 9.35317 15.0596 10.7052 15.0596 12.4073ZM15.7759 12.4073C15.7759 11.3673 15.4097 10.4781 14.6729 9.74134C13.9361 9.00455 13.0441 8.63835 11.9968 8.63835C10.9524 8.63835 10.0632 9.00455 9.33083 9.74134C8.59404 10.4781 8.22345 11.3673 8.22345 12.4073C8.22345 13.4502 8.59404 14.3393 9.33083 15.079C10.0632 15.8173 10.9524 16.1879 11.9968 16.1879C13.0426 16.1879 13.9347 15.8173 14.6729 15.079C15.4083 14.3379 15.7759 13.4487 15.7759 12.4073Z" fill="#FFCE5D"/>
</svg>
