<svg width="24" height="24" viewBox="0 0 24 24" fill="none" xmlns="http://www.w3.org/2000/svg">
<rect width="24" height="24" rx="12" fill="#28272C"/>
<path d="M4 17V14.9C4 14.475 4.10938 14.0844 4.32812 13.7281C4.54688 13.3719 4.8375 13.1 5.2 12.9125C5.975 12.525 6.7625 12.2344 7.5625 12.0406C8.3625 11.8469 9.175 11.75 10 11.75C10.825 11.75 11.6375 11.8469 12.4375 12.0406C13.2375 12.2344 14.025 12.525 14.8 12.9125C15.1625 13.1 15.4531 13.3719 15.6719 13.7281C15.8906 14.0844 16 14.475 16 14.9V17H4ZM17.5 17V14.75C17.5 14.2 17.3469 13.6719 17.0406 13.1656C16.7344 12.6594 16.3 12.225 15.7375 11.8625C16.375 11.9375 16.975 12.0656 17.5375 12.2469C18.1 12.4281 18.625 12.65 19.1125 12.9125C19.5625 13.1625 19.9063 13.4406 20.1438 13.7469C20.3813 14.0531 20.5 14.3875 20.5 14.75V17H17.5ZM10 11C9.175 11 8.46875 10.7063 7.88125 10.1188C7.29375 9.53125 7 8.825 7 8C7 7.175 7.29375 6.46875 7.88125 5.88125C8.46875 5.29375 9.175 5 10 5C10.825 5 11.5313 5.29375 12.1188 5.88125C12.7063 6.46875 13 7.175 13 8C13 8.825 12.7063 9.53125 12.1188 10.1188C11.5313 10.7063 10.825 11 10 11ZM17.5 8C17.5 8.825 17.2063 9.53125 16.6188 10.1188C16.0312 10.7063 15.325 11 14.5 11C14.3625 11 14.1875 10.9844 13.975 10.9531C13.7625 10.9219 13.5875 10.8875 13.45 10.85C13.7875 10.45 14.0469 10.0063 14.2281 9.51875C14.4094 9.03125 14.5 8.525 14.5 8C14.5 7.475 14.4094 6.96875 14.2281 6.48125C14.0469 5.99375 13.7875 5.55 13.45 5.15C13.625 5.0875 13.8 5.04688 13.975 5.02813C14.15 5.00938 14.325 5 14.5 5C15.325 5 16.0312 5.29375 16.6188 5.88125C17.2063 6.46875 17.5 7.175 17.5 8ZM5.5 15.5H14.5V14.9C14.5 14.7625 14.4656 14.6375 14.3969 14.525C14.3281 14.4125 14.2375 14.325 14.125 14.2625C13.45 13.925 12.7688 13.6719 12.0813 13.5031C11.3938 13.3344 10.7 13.25 10 13.25C9.3 13.25 8.60625 13.3344 7.91875 13.5031C7.23125 13.6719 6.55 13.925 5.875 14.2625C5.7625 14.325 5.67188 14.4125 5.60313 14.525C5.53438 14.6375 5.5 14.7625 5.5 14.9V15.5ZM10 9.5C10.4125 9.5 10.7656 9.35313 11.0594 9.05938C11.3531 8.76563 11.5 8.4125 11.5 8C11.5 7.5875 11.3531 7.23438 11.0594 6.94063C10.7656 6.64688 10.4125 6.5 10 6.5C9.5875 6.5 9.23438 6.64688 8.94063 6.94063C8.64688 7.23438 8.5 7.5875 8.5 8C8.5 8.4125 8.64688 8.76563 8.94063 9.05938C9.23438 9.35313 9.5875 9.5 10 9.5Z" fill="#FFCE5D"/>
</svg>
