<svg width="24" height="24" viewBox="0 0 24 24" fill="none" xmlns="http://www.w3.org/2000/svg">
<rect width="24" height="24" rx="12" fill="#28272C"/>
<path d="M5.25 18.25V7.75H8.25V4.75H15.75V10.75H18.75V18.25H12.75V15.25H11.25V18.25H5.25ZM6.75 16.75H8.25V15.25H6.75V16.75ZM6.75 13.75H8.25V12.25H6.75V13.75ZM6.75 10.75H8.25V9.25H6.75V10.75ZM9.75 13.75H11.25V12.25H9.75V13.75ZM9.75 10.75H11.25V9.25H9.75V10.75ZM9.75 7.75H11.25V6.25H9.75V7.75ZM12.75 13.75H14.25V12.25H12.75V13.75ZM12.75 10.75H14.25V9.25H12.75V10.75ZM12.75 7.75H14.25V6.25H12.75V7.75ZM15.75 16.75H17.25V15.25H15.75V16.75ZM15.75 13.75H17.25V12.25H15.75V13.75Z" fill="#FFCE5D"/>
</svg>
