<svg width="24" height="24" viewBox="0 0 24 24" fill="none" xmlns="http://www.w3.org/2000/svg">
<rect width="24" height="24" rx="12" fill="#28272C"/>
<path d="M9.375 16.75C8.16167 16.75 7.12917 16.3242 6.2775 15.4725C5.42583 14.6208 5 13.5883 5 12.375C5 11.1617 5.42583 10.1292 6.2775 9.2775C7.12917 8.42583 8.16167 8 9.375 8H15.85C16.725 8 17.4688 8.30625 18.0813 8.91875C18.6938 9.53125 19 10.275 19 11.15C19 12.025 18.6938 12.7688 18.0813 13.3812C17.4688 13.9938 16.725 14.3 15.85 14.3H9.725C9.18833 14.3 8.73333 14.1133 8.36 13.74C7.98667 13.3667 7.8 12.9117 7.8 12.375C7.8 11.8383 7.98667 11.3833 8.36 11.01C8.73333 10.6367 9.18833 10.45 9.725 10.45H16.2V11.85H9.725C9.57333 11.85 9.44792 11.8996 9.34875 11.9987C9.24958 12.0979 9.2 12.2233 9.2 12.375C9.2 12.5267 9.24958 12.6521 9.34875 12.7512C9.44792 12.8504 9.57333 12.9 9.725 12.9H15.85C16.34 12.8883 16.7542 12.7162 17.0925 12.3837C17.4308 12.0512 17.6 11.64 17.6 11.15C17.6 10.66 17.4308 10.2458 17.0925 9.9075C16.7542 9.56917 16.34 9.4 15.85 9.4H9.375C8.54667 9.38833 7.84375 9.67417 7.26625 10.2575C6.68875 10.8408 6.4 11.5467 6.4 12.375C6.4 13.1917 6.68875 13.8858 7.26625 14.4575C7.84375 15.0292 8.54667 15.3267 9.375 15.35H16.2V16.75H9.375Z" fill="#FFCE5D"/>
</svg>
