<svg width="18" height="19" viewBox="0 0 18 19" fill="none" xmlns="http://www.w3.org/2000/svg">
<path d="M3.75 17C3.3375 17 2.98438 16.8531 2.69063 16.5594C2.39687 16.2656 2.25 15.9125 2.25 15.5V5C2.25 4.5875 2.39687 4.23438 2.69063 3.94063C2.98438 3.64688 3.3375 3.5 3.75 3.5H4.5V2H6V3.5H12V2H13.5V3.5H14.25C14.6625 3.5 15.0156 3.64688 15.3094 3.94063C15.6031 4.23438 15.75 4.5875 15.75 5V15.5C15.75 15.9125 15.6031 16.2656 15.3094 16.5594C15.0156 16.8531 14.6625 17 14.25 17H3.75ZM3.75 15.5H14.25V8H3.75V15.5ZM3.75 6.5H14.25V5H3.75V6.5Z" fill="#28272C"/>
</svg>
