<svg width="24" height="24" viewBox="0 0 24 24" fill="none" xmlns="http://www.w3.org/2000/svg">
<mask id="path-1-inside-1_312_1059" fill="white">
<path d="M0 0H24V24H0V0Z"/>
</mask>
<path d="M23.2739 1.35355C23.4691 1.15829 23.4691 0.841709 23.2739 0.646447C23.0786 0.451184 22.762 0.451184 22.5668 0.646447L23.2739 1.35355ZM22.5668 23.2739C22.762 23.4691 23.0786 23.4691 23.2739 23.2739C23.4691 23.0786 23.4691 22.762 23.2739 22.5668L22.5668 23.2739ZM1.35355 23.2739L12.3137 12.3137L11.6066 11.6066L0.646447 22.5668L1.35355 23.2739ZM12.3137 12.3137L23.2739 1.35355L22.5668 0.646447L11.6066 11.6066L12.3137 12.3137ZM0.646447 1.35355L11.6066 12.3137L12.3137 11.6066L1.35355 0.646447L0.646447 1.35355ZM11.6066 12.3137L22.5668 23.2739L23.2739 22.5668L12.3137 11.6066L11.6066 12.3137ZM0 0V-1H-1V0H0ZM24 0H25V-1H24V0ZM24 24V25H25V24H24ZM0 24H-1V25H0V24ZM0 1H24V-1H0V1ZM23 0V24H25V0H23ZM24 23H0V25H24V23ZM1 24V0H-1V24H1Z" fill="black" mask="url(#path-1-inside-1_312_1059)"/>
</svg>
