<svg width="19" height="19" viewBox="0 0 19 19" fill="none" xmlns="http://www.w3.org/2000/svg">
<path fill-rule="evenodd" clip-rule="evenodd" d="M15.2539 10.4117C15.2539 11.8647 14.7427 13.1054 13.7188 14.1293C12.6934 15.1546 11.4542 15.6673 10.0011 15.6673C8.55393 15.6673 7.31472 15.1561 6.2879 14.1293C5.26254 13.1054 4.74694 11.8647 4.74694 10.4117C4.74694 8.96298 5.26108 7.72816 6.2879 6.69987C7.31765 5.67452 8.5554 5.15891 10.0011 5.15891C11.4542 5.15891 12.6934 5.67305 13.7188 6.69987C14.7412 7.72816 15.2539 8.96298 15.2539 10.4117ZM3.39786 9.44343C3.85927 9.1285 4.09071 8.71689 4.05116 7.77503V5.35373C4.04677 5.01536 3.43302 4.97435 3.40226 5.35373L3.37882 7.31801C3.37736 7.68568 2.82513 7.6974 2.8266 7.31801L2.85003 5.28635C2.84271 4.92308 2.25679 4.88646 2.24947 5.28635C2.24947 5.85029 2.22603 6.75407 2.22603 7.31801C2.25533 7.67396 1.74265 7.72083 1.75583 7.31801L1.77927 5.29953C1.76609 5.02562 1.46434 4.92747 1.25927 5.05638C1.04101 5.19553 1.08496 5.47531 1.07617 5.71114L1 8.02844C1.01172 8.70224 1.18896 9.25007 1.71628 9.48298C1.79685 9.51813 1.90817 9.54596 2.03707 9.565L1.85544 15.2162C1.84518 15.5516 2.1191 15.8255 2.43989 15.8255H2.51313C2.87493 15.8255 3.18107 15.5165 3.17082 15.14L3.01116 9.56354C3.17961 9.53717 3.31877 9.49762 3.39786 9.44343ZM16.6352 15.0463L16.6264 9.97075C14.8467 8.94247 15.4136 4.98021 17.1947 5.00218C19.3597 5.02708 19.616 9.46686 17.7543 9.95464L17.892 15.0668C17.9183 16.0335 16.6367 16.1229 16.6352 15.0463ZM13.0596 10.4073C13.0596 11.2539 12.7623 11.9761 12.1632 12.5752C11.5655 13.1713 10.8434 13.4716 9.99675 13.4716C9.15596 13.4716 8.43382 13.1713 7.83618 12.5752C7.23855 11.9761 6.93973 11.2539 6.93973 10.4073C6.93973 9.56647 7.23855 8.84433 7.83618 8.24816C8.43528 7.65199 9.15596 7.3517 9.99675 7.3517C11.6974 7.35317 13.0596 8.70517 13.0596 10.4073ZM13.7759 10.4073C13.7759 9.36726 13.4097 8.47813 12.6729 7.74134C11.9361 7.00455 11.0441 6.63835 9.99675 6.63835C8.95235 6.63835 8.06323 7.00455 7.33083 7.74134C6.59404 8.47813 6.22345 9.36726 6.22345 10.4073C6.22345 11.4502 6.59404 12.3393 7.33083 13.079C8.06323 13.8173 8.95235 14.1879 9.99675 14.1879C11.0426 14.1879 11.9347 13.8173 12.6729 13.079C13.4083 12.3379 13.7759 11.4487 13.7759 10.4073Z" fill="#28272C"/>
</svg>
